<?xml version="1.0" encoding="UTF-8"?>
<svg id="Layer_2" data-name="Layer 2" xmlns="http://www.w3.org/2000/svg" viewBox="0 0 1023 1023">
  <g id="Layer_1" data-name="Layer 1">
    <g>
      <rect width="1023" height="1023" fill="#fff"/>
      <g>
        <path d="M511.65,440.21c1.22-2.03,2.43-3.65,4.06-5.68,33.67-47.05,85.18-86.81,144.41-92.89,64.5-6.08,115.61,29.61,146.03,85.18,57.19,103.44,12.98,207.28-55.17,292.46-62.87,78.29-143.19,141.16-221.88,202.41l-17.44,13.79-17.44-13.79c-78.69-61.25-159.01-124.12-221.88-202.41-68.15-85.18-112.77-189.03-55.57-292.46,30.83-55.57,81.94-91.27,146.43-85.18,59.22,6.08,110.74,45.84,144.41,92.89,1.22,2.03,2.84,3.65,4.06,5.68h0Z" fill-rule="evenodd"/>
        <polygon points="511.65 488.89 426.06 608.95 511.65 728.62 597.24 608.95 511.65 488.89" fill="#fff" fill-rule="evenodd"/>
        <path d="M330.33,742.41c32.86,34.48,68.96,66.93,103.44,94.92l60.44-84.37-85.59-119.66-78.29,109.12Z" fill="#fff" fill-rule="evenodd"/>
        <path d="M230.95,592.73c15.41,44.62,44.62,88.02,79.91,128.18l80.32-111.96-85.99-120.07-74.23,103.84Z" fill="#fff" fill-rule="evenodd"/>
        <path d="M255.29,419.12c-4.46,6.49-9.33,13.79-13.39,21.5-21.5,38.54-26.77,77.88-20.28,116.42l66.12-92.48-32.45-45.43Z" fill="#fff" fill-rule="evenodd"/>
        <path d="M355.89,369.63c-28.8-1.62-56.79,6.9-80.72,28.39l30.02,42.19,50.7-70.58Z" fill="#fff" fill-rule="evenodd"/>
        <path d="M494.21,464.55l-.41-.41-.81-1.22-1.22-2.03-.81-.81-.81-1.22-.81-.81-.81-1.22-.81-1.22-.81-.81-.81-1.22-.81-1.22-.81-1.22h0c-27.18-37.72-62.06-64.5-97.76-75.85l-64.09,89.24,85.99,119.66,85.59-119.66Z" fill="#fff" fill-rule="evenodd"/>
        <path d="M636.59,375.31c-35.7,11.36-70.58,38.13-97.76,75.85h0l-.81,1.22-.81,1.22-.81,1.22-.81.81-.81,1.22-.81,1.22-.81.81-.81,1.22-.81.81-1.22,2.03-.81,1.22-.41.41,85.59,119.66,85.59-119.66-63.68-89.24Z" fill="#fff" fill-rule="evenodd"/>
        <path d="M748.14,398.02c-23.93-21.09-51.92-30.02-80.72-28.39l50.7,70.58,30.02-42.19Z" fill="#fff" fill-rule="evenodd"/>
        <path d="M801.28,557.03c6.49-38.54,1.62-77.88-19.88-116.42-4.06-7.71-8.92-15.01-13.79-21.5l-32.05,45.43,65.71,92.48Z" fill="#fff" fill-rule="evenodd"/>
        <path d="M712.44,720.91c34.88-40.16,64.09-83.56,79.91-128.18l-74.23-103.84-85.99,120.07,80.32,111.96Z" fill="#fff" fill-rule="evenodd"/>
        <path d="M589.54,837.33c34.48-27.99,70.58-60.44,103.44-94.92l-78.29-109.12-85.59,119.66,60.44,84.37Z" fill="#fff" fill-rule="evenodd"/>
        <path d="M511.65,899.39c16.63-12.98,35.7-27.58,55.98-43.81l-55.98-78.29-55.98,78.29c20.28,16.23,39.35,30.83,55.98,43.81h0Z" fill="#fff" fill-rule="evenodd"/>
        <path d="M476.36,199.67c3.65-5.27,5.68-14.2,6.49-17.04,4.46-15.41,6.49-43,1.62-58.01-3.65-11.76.41-24.34,10.55-31.64,10.14-7.3,23.12-7.3,33.26,0,30.42,21.9,45.84,51.52,49.89,88.43,1.22,9.74,1.62,19.06,1.62,28.39,3.25-3.65,5.68-7.71,6.9-9.74,4.87-10.95,15.41-17.44,27.58-17.04,12.17.81,21.9,8.52,25.15,20.28,15.01,48.68,14.2,93.7-31.23,124.12-23.93,15.82-56.38,24.74-75.45,45.84-6.08,6.49-13.79,9.74-22.72,9.33-8.52-.41-15.82-4.46-21.09-11.36-10.14-13.79-50.3-28.8-66.52-38.13-45.43-26.37-52.73-66.12-24.74-110.74,6.49-10.55,8.92-21.5,7.3-33.67-1.62-12.17,4.06-22.72,14.6-28.39,10.55-5.68,22.72-4.46,31.64,3.25,10.14,8.11,17.04,18.66,22.72,30.42.81,1.62,1.62,3.65,2.43,5.68h0Z" fill-rule="evenodd"/>
        <path d="M511.65,354.22c47.86-52.33,133.86-34.07,101-142.78-6.49,13.79-36.1,49.49-53.14,40.56-22.72-11.36,16.23-90.05-47.86-135.89,10.55,33.26,2.03,125.75-47.46,114.79-12.17-2.43-11.76-29.61-31.23-45.84,2.43,19.06-1.22,36.51-11.36,52.33-47.86,76.66,58.01,74.23,90.05,116.82h0Z" fill="#fff" fill-rule="evenodd"/>
      </g>
    </g>
  </g>
</svg>