<?xml version="1.0" encoding="UTF-8"?>
<svg id="Layer_3" data-name="Layer 3" xmlns="http://www.w3.org/2000/svg" viewBox="0 0 511 511">
  <g id="Layer_1" data-name="Layer 1">
    <g>
      <rect y="0" width="511" height="511" fill="#fff"/>
      <g>
        <path d="M255.58,219.89c.61-.81,1.22-1.82,2.03-2.84,16.82-23.5,42.55-43.36,72.13-46.2,32.22-3.24,57.75,14.79,72.94,42.35,28.57,51.67,6.48,103.74-27.56,146.09-31.41,39.11-71.73,70.51-110.83,101.31l-8.71,6.69-8.71-6.69c-39.31-30.8-79.43-62.2-110.83-101.31-34.04-42.35-56.33-94.42-27.76-146.09,15.4-27.56,40.93-45.59,73.15-42.35,29.58,2.84,55.32,22.69,72.13,46.2.61,1.01,1.42,2.03,2.03,2.84h0Z" fill-rule="evenodd"/>
        <polygon points="255.58 346.93 227.62 386.24 255.58 425.35 283.54 386.24 255.58 346.93" fill="#fff" fill-rule="evenodd"/>
        <polygon points="218.7 295.67 190.74 334.77 218.7 374.08 246.86 334.77 218.7 295.67" fill="#fff" fill-rule="evenodd"/>
        <polygon points="182.03 244.41 154.06 283.51 182.03 322.62 209.99 283.51 182.03 244.41" fill="#fff" fill-rule="evenodd"/>
        <polygon points="292.25 295.67 264.29 334.77 292.25 374.08 320.21 334.77 292.25 295.67" fill="#fff" fill-rule="evenodd"/>
        <polygon points="255.58 244.2 227.62 283.51 255.58 322.62 283.54 283.51 255.58 244.2" fill="#fff" fill-rule="evenodd"/>
        <polygon points="328.92 244.2 300.96 283.51 328.92 322.62 357.09 283.51 328.92 244.2" fill="#fff" fill-rule="evenodd"/>
        <path d="M208.97,411.97c12.56,10.54,24.72,20.26,35.46,28.77l2.43-3.24-28.16-39.11-9.73,13.58Z" fill="#fff" fill-rule="evenodd"/>
        <path d="M165.01,370.84c10.54,11.14,21.88,21.88,33.23,31.81l11.75-16.41-27.96-39.31-17.02,23.91Z" fill="#fff" fill-rule="evenodd"/>
        <path d="M126.91,321.2c7.7,13.37,17.43,26.54,28.37,38.9l18.03-25.33-27.96-39.11-18.44,25.53Z" fill="#fff" fill-rule="evenodd"/>
        <path d="M110.91,247.45c-3.65,20.06.2,40.12,8.92,59.57l16.82-23.5-25.73-36.07Z" fill="#fff" fill-rule="evenodd"/>
        <path d="M145.35,192.94c-9.32,5.67-17.63,14.59-24.52,27.15-2.03,3.24-3.44,6.69-4.86,10.13l29.38,41.13,27.96-39.31-27.96-39.11Z" fill="#fff" fill-rule="evenodd"/>
        <path d="M202.49,191.32c-14.59-6.89-29.79-8.71-43.97-4.46l23.5,33.03,20.46-28.57Z" fill="#fff" fill-rule="evenodd"/>
        <path d="M246.86,232.05l-.2-.2-.41-.41-.61-1.01-.41-.61-.41-.61-.41-.41-.41-.61-.41-.61-.41-.41-.41-.61-.41-.61-.41-.61h0c-7.9-11.14-17.22-20.26-27.15-26.95l-24.11,33.63,27.96,39.31,28.16-39.31Z" fill="#fff" fill-rule="evenodd"/>
        <path d="M296.1,198.41c-9.93,6.69-19.05,15.8-26.95,26.95h0l-.61.61-.41.61-.41.61-.41.41-.2.61-.41.61-.41.41-.41.61-.41.61-.61,1.01-.41.41-.2.2,27.96,39.31,27.96-39.31-24.11-33.63Z" fill="#fff" fill-rule="evenodd"/>
        <path d="M352.63,186.86c-14.18-4.26-29.58-2.43-44.17,4.46l20.46,28.57,23.71-33.03Z" fill="#fff" fill-rule="evenodd"/>
        <path d="M395.18,230.22c-1.42-3.44-3.04-6.89-4.86-10.13-6.89-12.56-15.2-21.48-24.52-27.15l-28.16,39.11,28.16,39.31,29.38-41.13Z" fill="#fff" fill-rule="evenodd"/>
        <path d="M391.33,307.02c8.71-19.45,12.56-39.51,8.92-59.57l-25.73,36.07,16.82,23.5Z" fill="#fff" fill-rule="evenodd"/>
        <path d="M355.87,360.1c10.74-12.36,20.46-25.53,28.16-38.9l-18.24-25.53-27.96,39.11,18.03,25.33Z" fill="#fff" fill-rule="evenodd"/>
        <path d="M312.92,402.65c11.14-9.93,22.49-20.67,33.23-31.81l-17.22-23.91-27.96,39.31,11.95,16.41Z" fill="#fff" fill-rule="evenodd"/>
        <path d="M266.52,440.74c10.94-8.51,23.1-18.24,35.46-28.77l-9.73-13.58-27.96,39.11,2.23,3.24Z" fill="#fff" fill-rule="evenodd"/>
        <path d="M237.95,99.74c1.62-2.63,2.84-7.09,3.24-8.51,2.03-7.7,3.24-21.28.81-28.97-1.82-5.88.2-12.16,5.27-15.8,5.07-3.65,11.55-3.65,16.61,0,15.2,10.94,22.9,25.94,24.92,44.17.61,4.86.81,9.52.81,14.39,1.62-2.03,2.84-3.85,3.24-5.07,2.63-5.47,7.9-8.71,13.98-8.31,5.88.2,10.94,4.25,12.56,9.93,7.5,24.52,7.09,47.01-15.6,62-11.95,8.1-28.16,12.36-37.69,22.9-3.04,3.24-6.89,4.86-11.35,4.66-4.26-.2-7.9-2.23-10.54-5.67-5.07-6.89-25.12-14.39-33.23-19.05-22.69-13.17-26.34-32.82-12.36-55.32,3.24-5.27,4.26-10.74,3.65-16.82-.81-5.88,2.03-11.35,7.29-14.18,5.27-2.84,11.35-2.23,15.8,1.62,5.07,4.26,8.51,9.32,11.35,15.2.41.81.81,1.82,1.22,2.84h0Z" fill-rule="evenodd"/>
        <path d="M255.58,176.93c23.91-26.14,66.86-17.02,50.25-71.12-3.04,6.69-17.83,24.52-26.34,20.26-11.35-5.88,8.1-45.18-23.91-68.08,5.27,16.61,1.01,62.81-23.71,57.54-6.08-1.42-5.88-14.79-15.6-23.1,1.22,9.52-.81,18.24-5.67,26.14-23.91,38.3,28.97,37.08,44.98,58.35h0Z" fill="#fff" fill-rule="evenodd"/>
      </g>
    </g>
  </g>
</svg>