<?xml version="1.0" encoding="UTF-8"?>
<svg id="Layer_3" data-name="Layer 3" xmlns="http://www.w3.org/2000/svg" viewBox="0 0 1023 1023">
  <g id="Layer_1" data-name="Layer 1">
    <g>
      <rect width="1023" height="1023"/>
      <g>
        <path d="M511.65,440.24c1.22-2.03,2.43-3.65,4.05-5.68,33.65-47.04,85.15-86.77,144.35-92.85,64.47-6.08,115.56,29.6,145.97,85.15,57.17,103.4,12.98,207.2-55.14,292.35-62.85,78.26-143.54,141.1-221.79,202.33l-17.44,13.79-17.44-13.79c-78.66-61.23-158.95-124.07-221.79-202.33-68.12-85.15-112.72-188.95-55.55-292.35,30.82-55.55,81.91-91.23,146.38-85.15,59.2,6.08,110.69,45.82,144.35,92.85,1.22,2.03,2.84,3.65,4.05,5.68h0Z" fill="#fff" fill-rule="evenodd"/>
        <polygon points="511.65 694.47 455.7 773.13 511.65 851.39 567.61 773.13 511.65 694.47" fill-rule="evenodd"/>
        <polygon points="437.86 591.89 381.9 670.14 437.86 748.4 494.22 670.14 437.86 591.89" fill-rule="evenodd"/>
        <polygon points="364.47 488.89 308.51 567.56 364.47 645.81 420.42 567.56 364.47 488.89" fill-rule="evenodd"/>
        <polygon points="585.04 591.89 529.09 670.14 585.04 748.4 641 670.14 585.04 591.89" fill-rule="evenodd"/>
        <polygon points="511.65 488.89 455.7 567.56 511.65 645.81 567.61 567.56 511.65 488.89" fill-rule="evenodd"/>
        <polygon points="658.43 488.89 602.48 567.56 658.43 645.81 714.8 567.56 658.43 488.89" fill-rule="evenodd"/>
        <path d="M418.39,824.63c25.14,21.08,49.47,40.55,70.96,57.58l4.87-6.49-56.36-78.26-19.46,27.17Z" fill-rule="evenodd"/>
        <path d="M330.41,742.32c21.08,22.3,43.79,43.79,66.5,63.66l23.52-32.84-55.96-78.66-34.06,47.85Z" fill-rule="evenodd"/>
        <path d="M254.18,642.97c15.41,26.76,34.87,52.71,56.77,77.85l36.09-50.68-55.96-78.26-36.9,51.09Z" fill-rule="evenodd"/>
        <path d="M222.15,495.38c-7.3,40.14.41,80.28,17.84,119.21l33.65-47.04-51.49-72.17Z" fill-rule="evenodd"/>
        <path d="M291.08,386.31c-18.65,11.35-35.28,29.19-49.06,54.33-4.05,6.49-6.89,13.38-9.73,20.27l58.79,81.91,55.96-78.26-55.96-78.26Z" fill-rule="evenodd"/>
        <path d="M405.42,383.07c-29.19-13.79-59.6-17.44-87.99-8.92l47.03,66.09,40.95-57.17Z" fill-rule="evenodd"/>
        <path d="M494.22,464.57l-.41-.41-.81-1.22-1.22-2.03-.81-.81-.81-1.22-.81-.81-.81-1.22-.81-1.22-.81-.81-.81-1.22-.81-1.22-.81-1.22h0c-15.81-22.3-34.47-40.55-54.33-53.93l-48.25,67.31,55.96,78.26,56.36-78.26Z" fill-rule="evenodd"/>
        <path d="M592.75,397.26c-19.87,13.38-38.11,31.63-53.93,53.93h0l-1.22,1.22-.81,1.22-.81,1.22-.81.81-.41,1.22-.81,1.22-.81.81-.81,1.22-.81.81-1.22,2.03-.81,1.22-.41.41,55.96,78.26,55.96-78.26-48.25-67.31Z" fill-rule="evenodd"/>
        <path d="M705.88,374.15c-28.38-8.51-59.2-4.87-88.39,8.92l40.95,57.17,47.44-66.09Z" fill-rule="evenodd"/>
        <path d="M791.02,460.92c-2.84-6.89-6.08-13.79-9.73-20.27-13.79-25.14-30.41-42.98-49.06-54.33l-56.36,78.26,56.36,78.26,58.79-81.91Z" fill-rule="evenodd"/>
        <path d="M783.32,614.59c17.44-38.93,25.14-79.07,17.84-119.21l-51.5,72.17,33.65,47.04Z" fill-rule="evenodd"/>
        <path d="M712.36,720.83c21.49-25.14,40.95-51.09,56.36-77.85l-36.49-51.09-55.96,78.26,36.09,50.68Z" fill-rule="evenodd"/>
        <path d="M626.4,805.98c22.3-19.87,45.01-41.36,66.5-63.66l-34.47-47.85-55.96,78.66,23.92,32.84Z" fill-rule="evenodd"/>
        <path d="M533.55,882.2c21.9-17.03,46.22-36.49,70.96-57.58l-19.46-27.17-55.96,78.26,4.46,6.49Z" fill-rule="evenodd"/>
        <path d="M476.38,199.79c3.24-5.27,5.68-14.19,6.49-17.03,4.05-15.41,6.49-42.98,1.62-57.98-3.65-11.76.41-24.33,10.54-31.63,10.14-7.3,23.11-7.3,33.25,0,30.41,21.9,45.82,51.5,49.87,88.39,1.22,9.73,1.62,19.06,1.62,28.38,3.24-3.65,5.68-7.7,6.49-9.73,5.27-10.95,15.81-17.44,27.98-17.03,11.76.81,21.9,8.51,25.14,20.27,15,48.66,14.19,93.66-31.22,124.08-23.92,15.81-56.36,24.73-75.42,45.82-6.08,6.49-13.79,9.73-22.71,9.33-8.51-.41-15.81-4.46-21.08-11.35-10.14-13.79-50.28-28.79-66.5-38.11-45.41-26.36-52.71-66.09-24.73-110.69,6.49-10.54,8.51-21.49,7.3-33.65-1.62-12.16,4.05-22.71,14.6-28.38,10.54-5.68,22.71-4.46,31.63,3.24,10.14,8.11,17.03,18.65,22.71,30.41.81,1.62,1.62,3.65,2.43,5.68h0Z" fill="#fff" fill-rule="evenodd"/>
        <path d="M511.65,354.28c47.85-52.31,133.81-34.06,100.56-142.73-6.08,13.79-35.68,49.47-52.71,40.55-22.71-11.35,16.22-90.02-47.85-135.83,10.54,33.25,2.03,125.7-47.44,114.75-12.16-2.43-11.76-29.6-31.22-45.82,2.43,19.06-1.62,36.49-11.35,52.31-47.85,76.63,57.98,74.2,90.02,116.78h0Z" fill-rule="evenodd"/>
      </g>
    </g>
  </g>
</svg>