<?xml version="1.0" encoding="UTF-8"?>
<svg id="Layer_2" data-name="Layer 2" xmlns="http://www.w3.org/2000/svg" viewBox="0 0 1023 1023">
  <g id="Layer_1" data-name="Layer 1">
    <g>
      <rect width="1023" height="1023"/>
      <g>
        <path d="M511.65,440.24c1.22-1.62,2.43-3.65,4.05-5.68,33.65-47.04,85.15-86.77,144.35-92.45,64.47-6.49,115.56,29.6,145.97,84.74,57.17,103.4,12.97,207.6-55.14,292.35-62.85,78.26-143.13,141.1-221.79,202.74l-17.44,13.38-17.44-13.38c-78.66-61.63-158.95-124.48-221.79-202.74-68.12-84.74-112.72-188.95-55.55-292.35,30.82-55.14,81.91-91.23,146.38-84.74,59.2,5.68,110.69,45.41,144.35,92.45,1.22,2.03,2.84,4.05,4.05,5.68h0Z" fill="#fff" fill-rule="evenodd"/>
        <polygon points="511.65 489.3 426.1 608.92 511.65 728.53 597.21 608.92 511.65 489.3" fill-rule="evenodd"/>
        <path d="M330.41,742.32c32.84,34.87,68.93,66.9,103.4,95.29l60.42-84.74-85.56-119.61-78.26,109.07Z" fill-rule="evenodd"/>
        <path d="M231.07,592.7c15.41,44.6,44.6,87.99,79.88,128.13l80.28-111.91-85.96-119.61-74.2,103.4Z" fill-rule="evenodd"/>
        <path d="M255.39,419.56c-4.46,6.08-9.33,13.38-13.38,21.08-21.49,38.52-26.76,77.85-20.27,116.37l66.09-92.45-32.44-45.01Z" fill-rule="evenodd"/>
        <path d="M355.95,369.69c-28.79-1.62-56.77,7.3-80.69,28.38l30.01,42.17,50.68-70.55Z" fill-rule="evenodd"/>
        <path d="M494.22,464.57l-.41-.41-.81-.81-1.22-2.03-.81-1.22-.81-1.22-.81-.81-.81-1.22-.81-1.22-.81-.81-.81-1.22-.81-1.22-.81-1.22h0c-27.17-37.71-62.04-64.47-97.72-75.42l-64.06,88.8,85.96,120.02,85.56-120.02Z" fill-rule="evenodd"/>
        <path d="M636.54,375.77c-35.68,10.95-70.55,37.71-97.72,75.42h0l-.81,1.22-.81,1.22-.81,1.22-.81.81-.81,1.22-.81,1.22-.81.81-.81,1.22-.81,1.22-1.22,2.03-.81.81-.41.41,85.56,120.02,85.55-120.02-63.66-88.8Z" fill-rule="evenodd"/>
        <path d="M748.04,398.07c-23.92-21.08-51.9-30.01-80.69-28.38l50.68,70.55,30-42.17Z" fill-rule="evenodd"/>
        <path d="M801.16,557.01c6.49-38.52,1.62-77.85-19.87-116.37-4.05-7.7-8.92-15-13.79-21.08l-32.03,45.01,65.69,92.45Z" fill-rule="evenodd"/>
        <path d="M712.36,720.83c34.87-40.14,64.06-83.53,79.88-128.13l-74.2-103.4-85.96,119.61,80.28,111.91Z" fill-rule="evenodd"/>
        <path d="M589.5,837.6c34.47-28.38,70.55-60.42,103.4-95.29l-78.26-109.07-85.56,119.61,60.42,84.74Z" fill-rule="evenodd"/>
        <path d="M511.65,899.64c16.62-13.38,35.68-27.98,55.96-44.2l-55.96-78.26-55.96,78.26c20.27,16.22,39.33,30.82,55.96,44.2h0Z" fill-rule="evenodd"/>
        <path d="M476.38,199.79c3.65-5.27,5.68-14.19,6.49-17.03,4.46-15.41,6.49-42.57,1.62-57.98-3.65-11.76.41-24.33,10.54-31.63,10.14-7.3,23.11-7.3,33.25,0,30.41,21.9,45.82,51.9,49.87,88.39,1.22,9.73,1.62,19.06,1.62,28.79,3.24-4.05,5.68-7.7,6.89-10.14,4.87-10.95,15.41-17.44,27.57-16.62,12.16.41,21.9,8.51,25.14,19.87,15,49.06,14.19,94.07-31.22,124.08-23.92,16.22-56.36,24.73-75.42,45.82-6.08,6.49-13.79,9.73-22.71,9.33-8.51-.41-15.81-4.46-21.08-11.35-10.14-13.79-50.28-28.79-66.5-38.11-45.41-26.36-52.71-65.69-24.73-110.69,6.49-10.54,8.92-21.49,7.3-33.65-1.62-11.76,4.05-22.71,14.6-28.38,10.54-5.68,22.71-4.46,31.63,3.24,10.14,8.51,17.03,18.65,22.71,30.41.81,1.62,1.62,3.65,2.43,5.68h0Z" fill="#fff" fill-rule="evenodd"/>
        <path d="M511.65,354.28c47.85-52.31,133.81-34.06,100.96-142.32-6.49,13.38-36.09,49.06-53.12,40.55-22.71-11.76,16.22-90.42-47.85-136.24,10.54,33.25,2.03,125.7-47.44,115.15-12.16-2.84-11.76-29.6-31.22-46.22,2.43,19.06-1.22,36.49-11.35,52.31-47.85,76.63,57.98,74.2,90.02,116.78h0Z" fill-rule="evenodd"/>
      </g>
    </g>
  </g>
</svg>