<?xml version="1.0" encoding="UTF-8"?>
<svg id="Layer_3" data-name="Layer 3" xmlns="http://www.w3.org/2000/svg" viewBox="0 0 511 511">
  <g id="Layer_1" data-name="Layer 1">
    <g>
      <rect y="0" width="511" height="511"/>
      <g>
        <path d="M255.58,219.9c.61-.81,1.22-1.82,2.03-2.84,16.81-23.49,42.53-43.34,72.1-46.18,32.2-3.24,57.72,14.79,72.91,42.33,28.56,51.65,6.48,103.7-27.55,146.03-31.39,39.09-71.5,70.48-110.79,101.27l-8.71,6.68-8.71-6.68c-39.29-30.79-79.4-62.18-110.79-101.27-34.03-42.33-56.31-94.38-27.75-146.03,15.39-27.55,40.91-45.57,73.12-42.33,29.57,2.84,55.29,22.68,72.1,46.18.61,1.01,1.42,2.03,2.03,2.84h0Z" fill="#fff" fill-rule="evenodd"/>
        <polygon points="255.58 244.41 212.84 304.16 255.58 363.91 298.31 304.16 255.58 244.41" fill-rule="evenodd"/>
        <path d="M165.04,370.8c16.41,17.42,34.43,33.42,51.65,47.6l30.18-42.33-42.74-59.75-39.09,54.48Z" fill-rule="evenodd"/>
        <path d="M115.42,296.06c7.7,22.28,22.28,43.95,39.9,64l40.1-55.9-42.94-59.75-37.06,51.65Z" fill-rule="evenodd"/>
        <path d="M127.57,209.57c-2.23,3.04-4.66,6.68-6.68,10.53-10.73,19.24-13.37,38.89-10.13,58.13l33.01-46.18-16.2-22.48Z" fill-rule="evenodd"/>
        <path d="M177.8,184.66c-14.38-.81-28.36,3.65-40.31,14.18l14.99,21.06,25.32-35.24Z" fill-rule="evenodd"/>
        <path d="M246.87,232.06l-.2-.2-.4-.41-.61-1.01-.41-.61-.4-.61-.41-.41-.41-.61-.41-.61-.4-.41-.41-.61-.41-.61-.4-.61h0c-13.57-18.84-30.99-32.2-48.81-37.67l-32,44.36,42.94,59.95,42.74-59.95Z" fill-rule="evenodd"/>
        <path d="M317.96,187.7c-17.82,5.47-35.24,18.84-48.81,37.67h0l-.4.61-.41.61-.41.61-.41.41-.4.61-.41.61-.41.41-.4.61-.41.61-.61,1.01-.4.41-.2.2,42.74,59.95,42.74-59.95-31.8-44.36Z" fill-rule="evenodd"/>
        <path d="M373.66,198.84c-11.95-10.53-25.92-14.99-40.31-14.18l25.32,35.24,14.99-21.06Z" fill-rule="evenodd"/>
        <path d="M400.19,278.24c3.24-19.24.81-38.89-9.92-58.13-2.03-3.85-4.46-7.49-6.89-10.53l-16,22.48,32.81,46.18Z" fill-rule="evenodd"/>
        <path d="M355.83,360.06c17.42-20.05,32-41.72,39.9-64l-37.06-51.65-42.94,59.75,40.1,55.9Z" fill-rule="evenodd"/>
        <path d="M294.46,418.39c17.22-14.18,35.24-30.18,51.65-47.6l-39.09-54.48-42.74,59.75,30.18,42.33Z" fill-rule="evenodd"/>
        <path d="M255.58,449.38c8.3-6.68,17.82-13.98,27.95-22.08l-27.95-39.09-27.95,39.09c10.13,8.1,19.65,15.39,27.95,22.08h0Z" fill-rule="evenodd"/>
        <path d="M237.96,99.8c1.82-2.63,2.84-7.09,3.24-8.51,2.23-7.7,3.24-21.27.81-28.96-1.82-5.87.2-12.15,5.27-15.8,5.06-3.65,11.54-3.65,16.61,0,15.19,10.94,22.89,25.93,24.91,44.15.61,4.86.81,9.52.81,14.38,1.62-2.03,2.84-3.85,3.44-5.06,2.43-5.47,7.7-8.71,13.77-8.3,6.08.2,10.94,4.25,12.56,9.92,7.49,24.51,7.09,46.99-15.6,61.98-11.95,8.1-28.15,12.35-37.67,22.89-3.04,3.24-6.89,4.86-11.34,4.66-4.25-.2-7.9-2.23-10.53-5.67-5.06-6.89-25.11-14.38-33.22-19.04-22.68-13.17-26.33-32.81-12.35-55.29,3.24-5.27,4.46-10.73,3.65-16.81-.81-5.87,2.03-11.34,7.29-14.18,5.27-2.84,11.34-2.23,15.8,1.62,5.06,4.25,8.51,9.32,11.34,15.19.41.81.81,1.82,1.22,2.84h0Z" fill="#fff" fill-rule="evenodd"/>
        <path d="M255.58,176.97c23.9-26.13,66.84-17.01,50.43-71.09-3.24,6.68-18.03,24.51-26.53,20.25-11.34-5.87,8.1-45.17-23.9-68.05,5.27,16.61,1.01,62.79-23.7,57.52-6.08-1.42-5.87-14.79-15.6-23.09,1.22,9.52-.61,18.23-5.67,26.13-23.9,38.28,28.96,37.06,44.96,58.33h0Z" fill-rule="evenodd"/>
      </g>
    </g>
  </g>
</svg>