<?xml version="1.0" encoding="UTF-8"?>
<svg id="Layer_2" data-name="Layer 2" xmlns="http://www.w3.org/2000/svg" viewBox="0 0 1023 1023">
  <g id="Layer_1" data-name="Layer 1">
    <g>
      <rect width="1023" height="1023" fill="#fff"/>
      <g>
        <path d="M511.65,440.21c1.22-1.62,2.43-3.65,4.06-5.68,33.67-47.05,85.18-86.81,144.41-92.48,64.5-6.49,115.61,29.61,146.03,84.78,57.19,103.44,12.98,207.68-55.17,292.46-62.87,78.29-143.59,141.16-221.88,202.82l-17.44,13.39-17.44-13.39c-78.69-61.66-159.01-124.53-221.88-202.82-68.15-84.78-112.77-189.03-55.57-292.46,30.83-55.17,81.94-91.27,146.43-84.78,59.22,5.68,110.74,45.43,144.41,92.48,1.22,2.03,2.84,4.06,4.06,5.68h0Z" fill-rule="evenodd"/>
        <polygon points="511.65 694.54 455.68 773.24 511.65 851.52 567.63 773.24 511.65 694.54" fill="#fff" fill-rule="evenodd"/>
        <polygon points="437.83 591.92 381.85 670.2 437.83 748.9 494.21 670.2 437.83 591.92" fill="#fff" fill-rule="evenodd"/>
        <polygon points="364.41 489.29 308.43 567.58 364.41 645.87 420.39 567.58 364.41 489.29" fill="#fff" fill-rule="evenodd"/>
        <polygon points="585.07 591.92 529.1 670.2 585.07 748.9 641.05 670.2 585.07 591.92" fill="#fff" fill-rule="evenodd"/>
        <polygon points="511.65 488.89 455.68 567.58 511.65 645.87 567.63 567.58 511.65 488.89" fill="#fff" fill-rule="evenodd"/>
        <polygon points="658.49 488.89 602.52 567.58 658.49 645.87 714.88 567.58 658.49 488.89" fill="#fff" fill-rule="evenodd"/>
        <path d="M418.36,824.75c25.15,21.09,49.49,40.56,70.99,57.6l4.87-6.49-56.38-78.29-19.47,27.18Z" fill="#fff" fill-rule="evenodd"/>
        <path d="M330.33,742.41c21.09,22.31,43.81,43.81,66.52,63.68l23.53-32.86-55.98-78.69-34.07,47.87Z" fill="#fff" fill-rule="evenodd"/>
        <path d="M254.08,643.03c15.41,26.77,34.88,53.14,56.79,77.88l36.1-50.7-55.98-78.29-36.91,51.11Z" fill="#fff" fill-rule="evenodd"/>
        <path d="M222.03,495.38c-7.3,40.16.41,80.32,17.85,119.26l33.67-47.05-51.52-72.2Z" fill="#fff" fill-rule="evenodd"/>
        <path d="M290.99,386.26c-18.66,11.36-35.29,29.21-49.08,54.36-4.06,6.49-6.9,13.39-9.74,20.28l58.82,82.34,55.98-78.69-55.98-78.29Z" fill="#fff" fill-rule="evenodd"/>
        <path d="M405.38,383.02c-29.21-13.79-59.63-17.44-88.02-8.92l47.05,66.12,40.97-57.19Z" fill="#fff" fill-rule="evenodd"/>
        <path d="M494.21,464.55l-.41-.41-.81-.81-1.22-2.03-.81-1.22-.81-1.22-.81-.81-.81-1.22-.81-1.22-.81-.81-.81-1.22-.81-1.22-.81-1.22h0c-15.82-22.31-34.48-40.56-54.36-53.95l-48.27,67.34,55.98,78.69,56.38-78.69Z" fill="#fff" fill-rule="evenodd"/>
        <path d="M592.78,397.21c-19.88,13.39-38.13,31.64-53.95,53.95h0l-1.22,1.22-.81,1.22-.81,1.22-.81.81-.41,1.22-.81,1.22-.81.81-.81,1.22-.81,1.22-1.22,2.03-.81.81-.41.41,55.98,78.69,55.98-78.69-48.27-67.34Z" fill="#fff" fill-rule="evenodd"/>
        <path d="M705.95,374.09c-28.39-8.52-59.22-4.87-88.43,8.92l40.97,57.19,47.46-66.12Z" fill="#fff" fill-rule="evenodd"/>
        <path d="M791.14,460.9c-2.84-6.9-6.08-13.79-9.73-20.28-13.79-25.15-30.42-43-49.08-54.36l-56.38,78.29,56.38,78.69,58.82-82.34Z" fill="#fff" fill-rule="evenodd"/>
        <path d="M783.43,614.63c17.44-38.94,25.15-79.1,17.85-119.26l-51.52,72.2,33.67,47.05Z" fill="#fff" fill-rule="evenodd"/>
        <path d="M712.44,720.91c21.5-24.74,40.97-51.11,56.38-77.88l-36.51-51.11-55.98,78.29,36.1,50.7Z" fill="#fff" fill-rule="evenodd"/>
        <path d="M626.45,806.09c22.31-19.88,45.03-41.37,66.52-63.68l-34.48-47.87-55.98,78.69,23.93,32.86Z" fill="#fff" fill-rule="evenodd"/>
        <path d="M533.56,882.35c21.9-17.04,46.24-36.51,70.99-57.6l-19.47-27.18-55.98,78.29,4.46,6.49Z" fill="#fff" fill-rule="evenodd"/>
        <path d="M476.36,199.67c3.25-5.27,5.68-14.2,6.49-17.04,4.06-15.41,6.49-42.59,1.62-58.01-3.65-11.76.41-24.34,10.55-31.64,10.14-7.3,23.12-7.3,33.26,0,30.42,21.9,45.84,51.92,49.89,88.43,1.22,9.74,1.62,19.06,1.62,28.8,3.25-4.06,5.68-7.71,6.49-10.14,5.27-10.95,15.82-17.44,27.99-16.63,11.76.41,21.9,8.52,25.15,19.88,15.01,49.08,14.2,94.11-31.23,124.12-23.93,16.23-56.38,24.74-75.45,45.84-6.08,6.49-13.79,9.74-22.72,9.33-8.52-.41-15.82-4.46-21.09-11.36-10.14-13.79-50.3-28.8-66.52-38.13-45.43-26.37-52.73-65.71-24.74-110.74,6.49-10.55,8.52-21.5,7.3-33.67-1.62-11.76,4.06-22.72,14.6-28.39,10.55-5.68,22.72-4.46,31.64,3.25,10.14,8.52,17.04,18.66,22.72,30.42.81,1.62,1.62,3.65,2.43,5.68h0Z" fill-rule="evenodd"/>
        <path d="M511.65,354.22c47.86-52.33,133.86-34.07,100.6-142.38-6.08,13.39-35.7,49.08-52.73,40.56-22.72-11.76,16.23-90.46-47.86-136.29,10.55,33.26,2.03,125.75-47.46,115.2-12.17-2.84-11.76-29.61-31.23-46.24,2.43,19.06-1.62,36.51-11.36,52.33-47.86,76.66,58.01,74.23,90.05,116.82h0Z" fill="#fff" fill-rule="evenodd"/>
      </g>
    </g>
  </g>
</svg>